<svg xmlns="http://www.w3.org/2000/svg" width="92.054" height="142.856" viewBox="0 0 92.054 142.856">
  <g id="Group_2221" data-name="Group 2221" transform="translate(-3679.75 314.356)">
    <g id="Group_2220" data-name="Group 2220">
      <g id="Group_2219" data-name="Group 2219">
        <g id="Group_2218" data-name="Group 2218">
          <g id="Group_2217" data-name="Group 2217">
            <path id="Path_2663" data-name="Path 2663" d="M-306.362,753.778V728.483h50.154v8.168h8.386v-8.176h8.335v8.193h8.386v-8.16h16.792v25.27Z" transform="translate(3986.112 -925.278)" fill="#76c1e2"/>
            <path id="Path_2664" data-name="Path 2664" d="M-231.126,701.535h-24.981v16.609h8.287v-8.2h8.341v8.223h8.343v-8.2h16.728v24.906H-306.3V709.907h41.659v-8.343H-289.5c-.809-7.6.884-14.241,6.438-19.648,5.613-5.468,12.545-6.4,19.979-5.8a17.6,17.6,0,0,1-11.16-7.363,16.25,16.25,0,0,1-2.478-13.029,16.828,16.828,0,0,1,17.951-13.05c7.892.64,14.717,7.564,15.133,15.351a17.148,17.148,0,0,1-13.949,18.1c1.709,0,3.42.057,5.125-.008,10.041-.383,19.951,7.3,21.3,18.97A57.845,57.845,0,0,1-231.126,701.535Z" transform="translate(3986.135 -956.972)" fill="#76c1e2"/>
            <path id="Path_2665" data-name="Path 2665" d="M-300.173,716.235h75.131v8.2h-75.131Z" transform="translate(3988.396 -929.798)" fill="#76c1e2"/>
          </g>
        </g>
      </g>
    </g>
  </g>
</svg>
